<svg width="33" height="33" viewBox="0 0 33 33" fill="none" xmlns="http://www.w3.org/2000/svg">
<rect width="33" height="33" fill="#F5F5F5"/>
<rect width="987" height="1303" transform="translate(-429 -508)" fill="white"/>
<circle cx="16.5" cy="16.5" r="27.5" fill="#A0C3F7"/>
<path d="M28.8805 10.9656V8.25C28.8805 5.21675 26.4137 2.75 23.3805 2.75H9.6305C6.59725 2.75 4.1305 5.21675 4.1305 8.25V10.9973L4.026 11.0027C3.67923 11.0278 3.35481 11.1833 3.11806 11.4379C2.8813 11.6925 2.74979 12.0273 2.75 12.375V15.125C2.75 15.4897 2.89487 15.8394 3.15273 16.0973C3.41059 16.3551 3.76033 16.5 4.125 16.5H4.1305V24.75C4.1305 25.7606 4.68463 26.6365 5.5 27.115V28.875C5.5 29.2397 5.64487 29.5894 5.90273 29.8473C6.16059 30.1051 6.51033 30.25 6.875 30.25H8.25C8.61467 30.25 8.96441 30.1051 9.22227 29.8473C9.48013 29.5894 9.625 29.2397 9.625 28.875V27.5H23.375V28.875C23.375 29.2397 23.5199 29.5894 23.7777 29.8473C24.0356 30.1051 24.3853 30.25 24.75 30.25H26.125C26.4897 30.25 26.8394 30.1051 27.0973 29.8473C27.3551 29.5894 27.5 29.2397 27.5 28.875V27.1205C27.918 26.8814 28.2657 26.5364 28.508 26.1203C28.7504 25.7042 28.8788 25.2316 28.8805 24.75V16.5C29.2452 16.5 29.5949 16.3551 29.8528 16.0973C30.1106 15.8394 30.2555 15.4897 30.2555 15.125V12.4603C30.2713 12.2469 30.2374 12.0327 30.1565 11.8346C29.8774 11.165 29.2834 11.0041 28.8805 10.9656ZM26.1333 24.75H6.8805V17.875H26.1319L26.1333 24.75ZM15.1305 9.625V15.125H6.8805V9.625H15.1305ZM26.1305 9.625V15.125H17.8805V9.625H26.1305ZM9.6305 5.5H23.3805C24.3925 5.5 25.2711 6.05687 25.7482 6.875H7.26275C7.73988 6.05687 8.6185 5.5 9.6305 5.5Z" fill="#0C09B1"/>
<path d="M10.3125 23.375C11.4516 23.375 12.375 22.4516 12.375 21.3125C12.375 20.1734 11.4516 19.25 10.3125 19.25C9.17341 19.25 8.25 20.1734 8.25 21.3125C8.25 22.4516 9.17341 23.375 10.3125 23.375Z" fill="#0C09B1"/>
<path d="M22.6875 23.375C23.8266 23.375 24.75 22.4516 24.75 21.3125C24.75 20.1734 23.8266 19.25 22.6875 19.25C21.5484 19.25 20.625 20.1734 20.625 21.3125C20.625 22.4516 21.5484 23.375 22.6875 23.375Z" fill="#0C09B1"/>
</svg>
