<svg width="33" height="33" viewBox="0 0 33 33" fill="none" xmlns="http://www.w3.org/2000/svg">
<g id="mdi:fuel-pump-outline">
<path id="Vector" d="M27.1838 9.94125L27.1975 9.9275L22.0825 4.8125L20.625 6.27L23.5263 9.17125C22.2338 9.66625 21.3125 10.9037 21.3125 12.375C21.3125 12.8264 21.4014 13.2734 21.5742 13.6905C21.7469 14.1075 22.0001 14.4865 22.3193 14.8057C22.964 15.4503 23.8383 15.8125 24.75 15.8125C25.245 15.8125 25.6987 15.7025 26.125 15.5238V25.4375C26.125 25.8022 25.9801 26.1519 25.7223 26.4098C25.4644 26.6676 25.1147 26.8125 24.75 26.8125C24.3853 26.8125 24.0356 26.6676 23.7777 26.4098C23.5199 26.1519 23.375 25.8022 23.375 25.4375V19.25C23.375 18.5207 23.0853 17.8212 22.5695 17.3055C22.0538 16.7897 21.3543 16.5 20.625 16.5H19.25V6.875C19.25 6.14565 18.9603 5.44618 18.4445 4.93046C17.9288 4.41473 17.2293 4.125 16.5 4.125H8.25C7.52065 4.125 6.82118 4.41473 6.30546 4.93046C5.78973 5.44618 5.5 6.14565 5.5 6.875V28.875H19.25V18.5625H21.3125V25.4375C21.3125 26.3492 21.6747 27.2235 22.3193 27.8682C22.964 28.5128 23.8383 28.875 24.75 28.875C25.2014 28.875 25.6484 28.7861 26.0655 28.6133C26.4825 28.4406 26.8615 28.1874 27.1807 27.8682C27.4999 27.549 27.7531 27.17 27.9258 26.753C28.0986 26.3359 28.1875 25.8889 28.1875 25.4375V12.375C28.1875 11.4262 27.8025 10.56 27.1838 9.94125ZM16.5 18.5625V26.125H8.25V16.5H16.5V18.5625ZM16.5 13.75H8.25V6.875H16.5V13.75ZM24.75 13.75C24.3853 13.75 24.0356 13.6051 23.7777 13.3473C23.5199 13.0894 23.375 12.7397 23.375 12.375C23.375 12.0103 23.5199 11.6606 23.7777 11.4027C24.0356 11.1449 24.3853 11 24.75 11C25.1147 11 25.4644 11.1449 25.7223 11.4027C25.9801 11.6606 26.125 12.0103 26.125 12.375C26.125 12.7397 25.9801 13.0894 25.7223 13.3473C25.4644 13.6051 25.1147 13.75 24.75 13.75Z" fill="#0C09B1"/>
</g>
</svg>
