<svg width="33" height="33" viewBox="0 0 33 33" fill="none" xmlns="http://www.w3.org/2000/svg">
<rect width="33" height="33" fill="#F5F5F5"/>
<g id="Category">
<rect width="987" height="1303" transform="translate(-429 -697)" fill="white"/>
<g id="Transportation">
<g id="Group 284">
<circle id="Ellipse 90" cx="16.5" cy="16.5" r="27.5" fill="#A0C3F7"/>
<g id="ri:taxi-wifi-line">
<path id="Vector" d="M16.5 4.125V9.625H8.5745L5.82313 15.125H30.25V28.875C30.25 29.2397 30.1051 29.5894 29.8473 29.8473C29.5894 30.1051 29.2397 30.25 28.875 30.25H27.5C27.1353 30.25 26.7856 30.1051 26.5277 29.8473C26.2699 29.5894 26.125 29.2397 26.125 28.875V27.5H6.875V28.875C6.875 29.2397 6.73013 29.5894 6.47227 29.8473C6.21441 30.1051 5.86467 30.25 5.5 30.25H4.125C3.76033 30.25 3.41059 30.1051 3.15273 29.8473C2.89487 29.5894 2.75 29.2397 2.75 28.875V15.125L6.11462 8.39575C6.34306 7.93861 6.69435 7.55416 7.1291 7.28555C7.56384 7.01693 8.06484 6.87476 8.57587 6.875H12.375V4.125H16.5ZM27.5 17.875H5.5V24.75H27.5V17.875ZM8.9375 19.25C9.48451 19.25 10.0091 19.4673 10.3959 19.8541C10.7827 20.2409 11 20.7655 11 21.3125C11 21.8595 10.7827 22.3841 10.3959 22.7709C10.0091 23.1577 9.48451 23.375 8.9375 23.375C8.39049 23.375 7.86589 23.1577 7.47909 22.7709C7.0923 22.3841 6.875 21.8595 6.875 21.3125C6.875 20.7655 7.0923 20.2409 7.47909 19.8541C7.86589 19.4673 8.39049 19.25 8.9375 19.25ZM24.0625 19.25C24.6095 19.25 25.1341 19.4673 25.5209 19.8541C25.9077 20.2409 26.125 20.7655 26.125 21.3125C26.125 21.8595 25.9077 22.3841 25.5209 22.7709C25.1341 23.1577 24.6095 23.375 24.0625 23.375C23.5155 23.375 22.9909 23.1577 22.6041 22.7709C22.2173 22.3841 22 21.8595 22 21.3125C22 20.7655 22.2173 20.2409 22.6041 19.8541C22.9909 19.4673 23.5155 19.25 24.0625 19.25ZM25.4375 1.375C27.0785 1.375 28.6523 2.0269 29.8127 3.18728C30.9731 4.34766 31.625 5.92147 31.625 7.5625C31.625 9.20353 30.9731 10.7773 29.8127 11.9377C28.6523 13.0981 27.0785 13.75 25.4375 13.75C23.7965 13.75 22.2227 13.0981 21.0623 11.9377C19.9019 10.7773 19.25 9.20353 19.25 7.5625C19.25 5.92147 19.9019 4.34766 21.0623 3.18728C22.2227 2.0269 23.7965 1.375 25.4375 1.375ZM25.4375 8.47962C24.7624 8.47962 24.145 8.723 23.6651 9.12587L23.4932 9.284L25.4375 11.2296L27.3804 9.284C27.1254 9.02867 26.8225 8.82618 26.4891 8.68815C26.1557 8.55011 25.7983 8.47925 25.4375 8.47962ZM25.4375 4.8125C23.8481 4.81011 22.3147 5.39982 21.1365 6.46663L20.8986 6.6935L22.1966 7.98875C22.6217 7.56235 23.1268 7.22416 23.683 6.99362C24.2392 6.76308 24.8354 6.64473 25.4375 6.64538C26.5518 6.64369 27.6282 7.0496 28.4639 7.78662L28.6784 7.98875L29.975 6.69213C29.3798 6.09532 28.6725 5.62203 27.8938 5.29946C27.1151 4.97689 26.2804 4.8114 25.4375 4.8125Z" fill="#0C09B1"/>
</g>
</g>
</g>
<g id="Life &#38; Entertaintment">
</g>
<g id="Financial Expenses">
</g>
<g id="Group 330">
</g>
</g>
</svg>
