<svg width="33" height="33" viewBox="0 0 33 33" fill="none" xmlns="http://www.w3.org/2000/svg">
<rect width="33" height="33" fill="#F5F5F5"/>
<rect width="987" height="1303" transform="translate(-429 -760)" fill="white"/>
<circle cx="16.5" cy="16.5" r="27.5" fill="#A0C3F7"/>
<path d="M20.625 1.03125C20.625 0.757746 20.7336 0.495443 20.927 0.302046C21.1204 0.108649 21.3827 0 21.6562 0L29.9062 0C30.1798 0 30.4421 0.108649 30.6355 0.302046C30.8289 0.495443 30.9375 0.757746 30.9375 1.03125V11.3438C30.9375 11.6173 30.8289 11.8796 30.6355 12.073C30.4421 12.2664 30.1798 12.375 29.9062 12.375H26.8125V29.9062C26.8125 30.1798 26.7039 30.4421 26.5105 30.6355C26.3171 30.8289 26.0548 30.9375 25.7812 30.9375C25.5077 30.9375 25.2454 30.8289 25.052 30.6355C24.8586 30.4421 24.75 30.1798 24.75 29.9062V12.375H21.6562C21.3827 12.375 21.1204 12.2664 20.927 12.073C20.7336 11.8796 20.625 11.6173 20.625 11.3438V1.03125ZM10.9704 4.125H18.5625V6.1875H10.9704C10.4691 6.18739 9.98483 6.3699 9.60827 6.70091C9.23171 7.03192 8.98861 7.48876 8.92444 7.986L8.35725 12.375H18.7378C18.9512 12.9784 19.3464 13.5009 19.8691 13.8703C20.3918 14.2396 21.0162 14.4378 21.6562 14.4375H7.21875C6.94525 14.4375 6.68294 14.5461 6.48955 14.7395C6.29615 14.9329 6.1875 15.1952 6.1875 15.4688V21.6562C6.1875 21.9298 6.29615 22.1921 6.48955 22.3855C6.68294 22.5789 6.94525 22.6875 7.21875 22.6875H22.6875V24.75H10.3125V27.3281C10.3125 27.7384 10.1495 28.1318 9.85943 28.4219C9.56934 28.712 9.17588 28.875 8.76562 28.875C8.35537 28.875 7.96191 28.712 7.67182 28.4219C7.38172 28.1318 7.21875 27.7384 7.21875 27.3281V24.75C6.39824 24.75 5.61133 24.4241 5.03114 23.8439C4.45095 23.2637 4.125 22.4768 4.125 21.6562V15.4688C4.1249 14.8163 4.33111 14.1804 4.71414 13.6522C5.09717 13.1239 5.63741 12.7303 6.25762 12.5276L6.27825 12.375H5.15625C4.88275 12.375 4.62044 12.2664 4.42705 12.073C4.23365 11.8796 4.125 11.6173 4.125 11.3438C4.125 11.0702 4.23365 10.8079 4.42705 10.6145C4.62044 10.4211 4.88275 10.3125 5.15625 10.3125H6.54431L6.87844 7.722C7.00683 6.72717 7.49332 5.81321 8.24688 5.15114C9.00044 4.48907 9.96942 4.12427 10.9725 4.125H10.9704ZM22.1698 17.0177C22.3513 17.0177 22.5246 17.0486 22.6875 17.1064V20.0186C22.4544 20.102 22.2046 20.1281 21.9593 20.0947C21.7139 20.0612 21.4802 19.9692 21.278 19.8264C21.0757 19.6836 20.9108 19.4942 20.7971 19.2742C20.6835 19.0542 20.6244 18.8101 20.625 18.5625C20.625 17.7086 21.3159 17.0177 22.1698 17.0177ZM12.375 18.5625C12.375 18.7654 12.335 18.9662 12.2574 19.1537C12.1798 19.3411 12.066 19.5114 11.9225 19.6548C11.7791 19.7983 11.6088 19.9121 11.4214 19.9897C11.2339 20.0674 11.0331 20.1073 10.8302 20.1073C10.6273 20.1073 10.4264 20.0674 10.239 19.9897C10.0516 19.9121 9.88129 19.7983 9.73784 19.6548C9.59439 19.5114 9.4806 19.3411 9.40297 19.1537C9.32533 18.9662 9.28537 18.7654 9.28537 18.5625C9.28537 18.1528 9.44813 17.7599 9.73784 17.4702C10.0275 17.1804 10.4205 17.0177 10.8302 17.0177C11.2399 17.0177 11.6328 17.1804 11.9225 17.4702C12.2122 17.7599 12.375 18.1528 12.375 18.5625Z" fill="#0C09B1"/>
</svg>
