<svg width="35" height="35" viewBox="0 0 35 35" fill="none" xmlns="http://www.w3.org/2000/svg">
<rect width="35" height="35" fill="#F5F5F5"/>
<rect width="987" height="1303" transform="translate(-429 -633)" fill="white"/>
<circle cx="16.5" cy="17.5" r="27.5" fill="#A0C3F7"/>
<path d="M14.2188 4.375L13.5013 6.5625H10.3906C8.94688 6.5625 7.66063 7.50312 7.2461 8.88672L5.74219 13.9114L3.6225 13.1939L2.94 15.2436L5.0925 15.9622L4.40891 18.2864C4.38269 18.3867 4.37127 18.4902 4.375 18.5938V27.3438C4.375 27.9453 4.86719 28.4375 5.46875 28.4375H8.75L9.12625 27.3438H25.8738L26.25 28.4375H29.5313C30.1328 28.4375 30.625 27.9453 30.625 27.3438V26.4206C30.6294 26.3659 30.6294 26.3058 30.625 26.25V18.5938C30.6287 18.4902 30.6173 18.3867 30.5911 18.2864L29.9075 15.9622L32.06 15.2447L31.3764 13.1928L29.2578 13.9114L27.7539 8.88672C27.549 8.21291 27.1325 7.62301 26.5662 7.20439C25.9998 6.78578 25.3137 6.5607 24.6094 6.5625H21.4988L20.7813 4.375H14.2188ZM10.3906 8.75H24.6094C25.0961 8.75 25.5281 9.07047 25.6692 9.53641L27.0703 14.2188H7.92969L9.33078 9.53641C9.47297 9.06609 9.90391 8.75 10.3906 8.75ZM7.28 16.4062H27.72L28.4375 18.7994V25.1562H6.5625V18.7983L7.28 16.4062ZM9.29688 17.5C8.86176 17.5 8.44446 17.6729 8.13678 17.9805C7.8291 18.2882 7.65625 18.7055 7.65625 19.1406C7.65625 19.5757 7.8291 19.993 8.13678 20.3007C8.44446 20.6084 8.86176 20.7812 9.29688 20.7812C9.732 20.7812 10.1493 20.6084 10.457 20.3007C10.7647 19.993 10.9375 19.5757 10.9375 19.1406C10.9375 18.7055 10.7647 18.2882 10.457 17.9805C10.1493 17.6729 9.732 17.5 9.29688 17.5ZM25.7031 17.5C25.268 17.5 24.8507 17.6729 24.543 17.9805C24.2354 18.2882 24.0625 18.7055 24.0625 19.1406C24.0625 19.5757 24.2354 19.993 24.543 20.3007C24.8507 20.6084 25.268 20.7812 25.7031 20.7812C26.1382 20.7812 26.5555 20.6084 26.8632 20.3007C27.1709 19.993 27.3438 19.5757 27.3438 19.1406C27.3438 18.7055 27.1709 18.2882 26.8632 17.9805C26.5555 17.6729 26.1382 17.5 25.7031 17.5ZM13.125 20.7812L11.7578 24.0625H14.1159L14.595 22.9688H20.405L20.8841 24.0625H23.2422L21.875 20.7812H13.125Z" fill="#0C09B1"/>
</svg>
