<svg width="33" height="33" viewBox="0 0 33 33" fill="none" xmlns="http://www.w3.org/2000/svg">
<rect width="33" height="33" fill="#F5F5F5"/>
<g id="Category">
<rect width="987" height="1303" transform="translate(-429 -571)" fill="white"/>
<g id="Transportation">
<g id="Group 282">
<circle id="Ellipse 88" cx="16.5" cy="16.5" r="27.5" fill="#A0C3F7"/>
<g id="mingcute:train-line">
<g id="Group">
<path id="Vector" fill-rule="evenodd" clip-rule="evenodd" d="M28.875 24.75C29.2397 24.75 29.5894 24.8949 29.8473 25.1527C30.1051 25.4106 30.25 25.7603 30.25 26.125C30.25 26.4897 30.1051 26.8394 29.8473 27.0973C29.5894 27.3551 29.2397 27.5 28.875 27.5H2.75C2.38533 27.5 2.03559 27.3551 1.77773 27.0973C1.51987 26.8394 1.375 26.4897 1.375 26.125C1.375 25.7603 1.51987 25.4106 1.77773 25.1527C2.03559 24.8949 2.38533 24.75 2.75 24.75H28.875ZM16.5 6.875C20.933 6.875 24.6702 8.35313 27.3185 10.4349C29.9186 12.4781 31.625 15.2419 31.625 17.875C31.625 19.0328 31.2703 20.02 30.6446 20.8175C30.0355 21.5958 29.2229 22.1237 28.3951 22.4867C26.7644 23.199 24.8243 23.375 23.375 23.375H4.11675C3.75606 23.3748 3.39894 23.3035 3.06583 23.1651C2.73273 23.0268 2.43019 22.8241 2.17552 22.5686C1.92086 22.3132 1.71907 22.0101 1.5817 21.6765C1.44434 21.343 1.3741 20.9857 1.375 20.625V9.625C1.375 8.11113 2.59875 6.875 4.12225 6.875H16.5ZM28.6234 16.5H4.125V20.625H23.375C24.6758 20.625 26.1731 20.4572 27.2938 19.9664C27.8396 19.7271 28.2301 19.4397 28.4804 19.1208C28.7141 18.8238 28.875 18.436 28.875 17.875C28.875 17.4543 28.7925 16.9895 28.6234 16.5ZM9.625 9.625H4.125V13.75H9.625V9.625ZM16.5 9.625H12.375V13.75H17.875V9.68C17.4268 9.64425 16.9675 9.625 16.5 9.625ZM20.625 10.1516V13.75H26.8826C26.4912 13.3341 26.0688 12.9484 25.619 12.5964C24.2962 11.5569 22.6078 10.6782 20.625 10.1516Z" fill="#0C09B1"/>
</g>
</g>
</g>
</g>
<g id="Housing">
</g>
<g id="Life &#38; Entertaintment">
</g>
<g id="Financial Expenses">
</g>
<g id="Group 330">
</g>
</g>
</svg>
