<svg width="44" height="44" viewBox="0 0 44 44" fill="none" xmlns="http://www.w3.org/2000/svg">
<g id="mdi:transportation">
<path id="Vector" d="M22 7.3335H9.16667C7.70798 7.3335 6.30903 7.91296 5.27758 8.94441C4.24613 9.97586 3.66667 11.3748 3.66667 12.8335V27.5002C3.66667 28.9589 4.24613 30.3578 5.27758 31.3893C6.30903 32.4207 7.70798 33.0002 9.16667 33.0002L7.33334 34.8335V36.6668H9.16667L12.8333 32.9452L16.5 33.0002V23.8335H7.33334V11.0002H23.8333V14.6668H27.5V12.8335C27.5 11.3748 26.9205 9.97586 25.8891 8.94441C24.8576 7.91296 23.4587 7.3335 22 7.3335ZM9.16667 25.6668C9.6529 25.6668 10.1192 25.86 10.463 26.2038C10.8069 26.5476 11 27.0139 11 27.5002C11 27.9864 10.8069 28.4527 10.463 28.7965C10.1192 29.1403 9.6529 29.3335 9.16667 29.3335C8.68044 29.3335 8.21413 29.1403 7.87031 28.7965C7.52649 28.4527 7.33334 27.9864 7.33334 27.5002C7.33334 27.0139 7.52649 26.5476 7.87031 26.2038C8.21413 25.86 8.68044 25.6668 9.16667 25.6668ZM37.7117 17.7102C37.455 16.9768 36.7583 16.5002 35.9333 16.5002H22.7517C21.9083 16.5002 21.23 16.9768 20.955 17.7102L18.3333 25.2452V35.3468C18.3333 36.0435 18.92 36.6668 19.6167 36.6668H20.7533C21.45 36.6668 22 35.9702 22 35.2735V33.0002H36.6667V35.2735C36.6667 35.9702 37.235 36.6668 37.9317 36.6668H39.05C39.7467 36.6668 40.3333 36.0435 40.3333 35.3468V25.2452L37.7117 17.7102ZM22.7517 18.3335H35.9333L37.8217 23.8335H20.8633L22.7517 18.3335ZM22 29.3335C21.5138 29.3335 21.0475 29.1403 20.7036 28.7965C20.3598 28.4527 20.1667 27.9864 20.1667 27.5002C20.1667 27.0139 20.3598 26.5476 20.7036 26.2038C21.0475 25.86 21.5138 25.6668 22 25.6668C22.4862 25.6668 22.9526 25.86 23.2964 26.2038C23.6402 26.5476 23.8333 27.0139 23.8333 27.5002C23.8333 27.9864 23.6402 28.4527 23.2964 28.7965C22.9526 29.1403 22.4862 29.3335 22 29.3335ZM36.6667 29.3335C36.1804 29.3335 35.7141 29.1403 35.3703 28.7965C35.0265 28.4527 34.8333 27.9864 34.8333 27.5002C34.8333 27.0139 35.0265 26.5476 35.3703 26.2038C35.7141 25.86 36.1804 25.6668 36.6667 25.6668C37.1529 25.6668 37.6192 25.86 37.963 26.2038C38.3069 26.5476 38.5 27.0139 38.5 27.5002C38.5 27.9864 38.3069 28.4527 37.963 28.7965C37.6192 29.1403 37.1529 29.3335 36.6667 29.3335Z" fill="#333333"/>
</g>
</svg>
